<svg xmlns="http://www.w3.org/2000/svg" xmlns:xlink="http://www.w3.org/1999/xlink" width="279.6" height="100.512" version="1.1" viewBox="0 0 209.7 75.384"><metadata><rdf:RDF xmlns:cc="http://creativecommons.org/ns#" xmlns:dc="http://purl.org/dc/elements/1.1/" xmlns:rdf="http://www.w3.org/1999/02/22-rdf-syntax-ns#"><cc:Work><dc:type rdf:resource="http://purl.org/dc/dcmitype/StillImage"/><dc:date>2022-03-17T17:25:30.847142</dc:date><dc:format>image/svg+xml</dc:format><dc:creator><cc:Agent><dc:title>Matplotlib v3.3.3, https://matplotlib.org/</dc:title></cc:Agent></dc:creator></cc:Work></rdf:RDF></metadata><defs><style type="text/css">*{stroke-linecap:butt;stroke-linejoin:round}</style></defs><g id="figure_1"><g id="patch_1"><path d="M 0 75.384 L 209.7 75.384 L 209.7 0 L 0 0 z" style="fill:none"/></g><g id="axes_1"><g id="line2d_1"><path d="M 16.077273 11.885975 L 47.044503 11.885975" clip-path="url(#pa995e487cb)" style="fill:none;stroke:#fff;stroke-linecap:square;stroke-opacity:.8;stroke-width:3"/></g><g id="line2d_2"><path d="M 16.077273 22.208385 L 57.366913 22.208385" clip-path="url(#pa995e487cb)" style="fill:none;stroke:#fff;stroke-linecap:square;stroke-opacity:.8;stroke-width:3"/></g><g id="line2d_3"><path d="M 16.077273 32.530795 L 57.366913 32.530795" clip-path="url(#pa995e487cb)" style="fill:none;stroke:#fff;stroke-linecap:square;stroke-opacity:.8;stroke-width:3"/></g><g id="line2d_4"><path d="M 16.077273 42.853205 L 47.044503 42.853205" clip-path="url(#pa995e487cb)" style="fill:none;stroke:#fff;stroke-linecap:square;stroke-opacity:.8;stroke-width:3"/></g><g id="line2d_5"><path d="M 16.077273 53.175615 L 26.399683 53.175615" clip-path="url(#pa995e487cb)" style="fill:none;stroke:#fff;stroke-linecap:square;stroke-opacity:.8;stroke-width:3"/></g><g id="line2d_6"><path d="M 16.077273 63.498025 L 26.399683 63.498025" clip-path="url(#pa995e487cb)" style="fill:none;stroke:#fff;stroke-linecap:square;stroke-opacity:.8;stroke-width:3"/></g><g id="line2d_7"><path d="M 95.353383 11.885975 L 107.740275 11.885975" clip-path="url(#pa995e487cb)" style="fill:none;stroke:#fff;stroke-linecap:square;stroke-opacity:.8;stroke-width:3"/></g><g id="line2d_8"><path d="M 82.96649 22.208385 L 120.127167 22.208385" clip-path="url(#pa995e487cb)" style="fill:none;stroke:#fff;stroke-linecap:square;stroke-opacity:.8;stroke-width:3"/></g><g id="line2d_9"><path d="M 76.773044 32.530795 L 126.320613 32.530795" clip-path="url(#pa995e487cb)" style="fill:none;stroke:#fff;stroke-linecap:square;stroke-opacity:.8;stroke-width:3"/></g><g id="line2d_10"><path d="M 76.773044 42.853205 L 126.320613 42.853205" clip-path="url(#pa995e487cb)" style="fill:none;stroke:#fff;stroke-linecap:square;stroke-opacity:.8;stroke-width:3"/></g><g id="line2d_11"><path d="M 82.96649 53.175615 L 120.127167 53.175615" clip-path="url(#pa995e487cb)" style="fill:none;stroke:#fff;stroke-linecap:square;stroke-opacity:.8;stroke-width:3"/></g><g id="line2d_12"><path d="M 95.353383 63.498025 L 107.740275 63.498025" clip-path="url(#pa995e487cb)" style="fill:none;stroke:#fff;stroke-linecap:square;stroke-opacity:.8;stroke-width:3"/></g><g id="line2d_13"><path d="M 142.010677 11.885975 L 193.622727 11.885975" clip-path="url(#pa995e487cb)" style="fill:none;stroke:#fff;stroke-linecap:square;stroke-opacity:.8;stroke-width:3"/></g><g id="line2d_14"><path d="M 142.010677 22.208385 L 193.622727 22.208385" clip-path="url(#pa995e487cb)" style="fill:none;stroke:#fff;stroke-linecap:square;stroke-opacity:.8;stroke-width:3"/></g><g id="line2d_15"><path d="M 162.655497 32.530795 L 172.977907 32.530795" clip-path="url(#pa995e487cb)" style="fill:none;stroke:#fff;stroke-linecap:square;stroke-opacity:.8;stroke-width:3"/></g><g id="line2d_16"><path d="M 162.655497 42.853205 L 172.977907 42.853205" clip-path="url(#pa995e487cb)" style="fill:none;stroke:#fff;stroke-linecap:square;stroke-opacity:.8;stroke-width:3"/></g><g id="line2d_17"><path d="M 162.655497 53.175615 L 172.977907 53.175615" clip-path="url(#pa995e487cb)" style="fill:none;stroke:#fff;stroke-linecap:square;stroke-opacity:.8;stroke-width:3"/></g><g id="line2d_18"><path d="M 162.655497 63.498025 L 172.977907 63.498025" clip-path="url(#pa995e487cb)" style="fill:none;stroke:#fff;stroke-linecap:square;stroke-opacity:.8;stroke-width:3"/></g><g id="line2d_19"><defs><path id="m5a2277d5a1" d="M 0 3 C 0.795609 3 1.55874 2.683901 2.12132 2.12132 C 2.683901 1.55874 3 0.795609 3 0 C 3 -0.795609 2.683901 -1.55874 2.12132 -2.12132 C 1.55874 -2.683901 0.795609 -3 0 -3 C -0.795609 -3 -1.55874 -2.683901 -2.12132 -2.12132 C -2.683901 -1.55874 -3 -0.795609 -3 0 C -3 0.795609 -2.683901 1.55874 -2.12132 2.12132 C -1.55874 2.683901 -0.795609 3 0 3 z" style="stroke:#fff"/></defs><g clip-path="url(#pa995e487cb)"><use style="fill:#fff;stroke:#fff" x="16.077" y="11.886" xlink:href="#m5a2277d5a1"/><use style="fill:#fff;stroke:#fff" x="16.077" y="22.208" xlink:href="#m5a2277d5a1"/><use style="fill:#fff;stroke:#fff" x="16.077" y="32.531" xlink:href="#m5a2277d5a1"/><use style="fill:#fff;stroke:#fff" x="16.077" y="42.853" xlink:href="#m5a2277d5a1"/><use style="fill:#fff;stroke:#fff" x="16.077" y="53.176" xlink:href="#m5a2277d5a1"/><use style="fill:#fff;stroke:#fff" x="16.077" y="63.498" xlink:href="#m5a2277d5a1"/><use style="fill:#fff;stroke:#fff" x="95.353" y="11.886" xlink:href="#m5a2277d5a1"/><use style="fill:#fff;stroke:#fff" x="82.966" y="22.208" xlink:href="#m5a2277d5a1"/><use style="fill:#fff;stroke:#fff" x="76.773" y="32.531" xlink:href="#m5a2277d5a1"/><use style="fill:#fff;stroke:#fff" x="76.773" y="42.853" xlink:href="#m5a2277d5a1"/><use style="fill:#fff;stroke:#fff" x="82.966" y="53.176" xlink:href="#m5a2277d5a1"/><use style="fill:#fff;stroke:#fff" x="95.353" y="63.498" xlink:href="#m5a2277d5a1"/><use style="fill:#fff;stroke:#fff" x="142.011" y="11.886" xlink:href="#m5a2277d5a1"/><use style="fill:#fff;stroke:#fff" x="142.011" y="22.208" xlink:href="#m5a2277d5a1"/><use style="fill:#fff;stroke:#fff" x="162.655" y="32.531" xlink:href="#m5a2277d5a1"/><use style="fill:#fff;stroke:#fff" x="162.655" y="42.853" xlink:href="#m5a2277d5a1"/><use style="fill:#fff;stroke:#fff" x="162.655" y="53.176" xlink:href="#m5a2277d5a1"/><use style="fill:#fff;stroke:#fff" x="162.655" y="63.498" xlink:href="#m5a2277d5a1"/></g></g><g id="line2d_20"><g clip-path="url(#pa995e487cb)"><use style="fill:#fff;stroke:#fff" x="47.045" y="11.886" xlink:href="#m5a2277d5a1"/><use style="fill:#fff;stroke:#fff" x="57.367" y="32.531" xlink:href="#m5a2277d5a1"/><use style="fill:#fff;stroke:#fff" x="57.367" y="22.208" xlink:href="#m5a2277d5a1"/><use style="fill:#fff;stroke:#fff" x="47.045" y="42.853" xlink:href="#m5a2277d5a1"/><use style="fill:#fff;stroke:#fff" x="26.4" y="53.176" xlink:href="#m5a2277d5a1"/><use style="fill:#fff;stroke:#fff" x="26.4" y="63.498" xlink:href="#m5a2277d5a1"/><use style="fill:#fff;stroke:#fff" x="107.74" y="11.886" xlink:href="#m5a2277d5a1"/><use style="fill:#fff;stroke:#fff" x="120.127" y="22.208" xlink:href="#m5a2277d5a1"/><use style="fill:#fff;stroke:#fff" x="126.321" y="32.531" xlink:href="#m5a2277d5a1"/><use style="fill:#fff;stroke:#fff" x="126.321" y="42.853" xlink:href="#m5a2277d5a1"/><use style="fill:#fff;stroke:#fff" x="120.127" y="53.176" xlink:href="#m5a2277d5a1"/><use style="fill:#fff;stroke:#fff" x="107.74" y="63.498" xlink:href="#m5a2277d5a1"/><use style="fill:#fff;stroke:#fff" x="193.623" y="11.886" xlink:href="#m5a2277d5a1"/><use style="fill:#fff;stroke:#fff" x="193.623" y="22.208" xlink:href="#m5a2277d5a1"/><use style="fill:#fff;stroke:#fff" x="172.978" y="32.531" xlink:href="#m5a2277d5a1"/><use style="fill:#fff;stroke:#fff" x="172.978" y="42.853" xlink:href="#m5a2277d5a1"/><use style="fill:#fff;stroke:#fff" x="172.978" y="53.176" xlink:href="#m5a2277d5a1"/><use style="fill:#fff;stroke:#fff" x="172.978" y="63.498" xlink:href="#m5a2277d5a1"/></g></g></g></g><defs><clipPath id="pa995e487cb"><rect width="195.3" height="60.984" x="7.2" y="7.2"/></clipPath></defs></svg>